<svg width="1440" height="1024" viewBox="0 0 1440 1024" fill="none" xmlns="http://www.w3.org/2000/svg">
<path d="M712 -3.4997L1439.5 -3.49981L1439.5 1029.5C548.5 818 524.881 393.971 -7.49996 -3.49981L712 -3.4997Z" fill="#B30040"/>
<circle cx="448" cy="86" r="50" fill="white"/>
<circle cx="1340" cy="275" r="100" fill="white"/>
<circle cx="1011" cy="51" r="15" fill="white"/>
<circle cx="1041" cy="81" r="15" fill="white"/>
<circle cx="1084" cy="66" r="15" fill="white"/>
<circle cx="1440" cy="437" r="75" fill="white"/>
<path d="M1252.64 119.481C1255.27 110.271 1264.41 104.491 1273.81 106.36C1335.1 118.552 1397.98 139.74 1426.77 131.94C1446.74 126.532 1438.07 144.534 1429.12 158.355C1423.6 166.866 1412.33 168.615 1403.03 164.565C1364.5 147.78 1318.65 149.979 1267.21 142.587C1256.3 141.019 1249.6 130.078 1252.64 119.481Z" fill="#D9D9D9"/>
<path d="M395.55 2.83286C403.531 5.73043 408.044 14.2047 405.618 22.3412C393.152 64.1638 373.915 105.716 379.654 126.755C383.192 139.722 372.089 135.281 361.451 128.716C351.806 122.763 350.947 109.598 355.869 99.3885C367.457 75.3488 368.01 45.9038 374.658 14.0051C376.615 4.61605 386.535 -0.440288 395.55 2.83286Z" fill="#D9D9D9"/>
</svg>
