<svg width="301" height="48" viewBox="0 0 301 48" fill="none" xmlns="http://www.w3.org/2000/svg">
<path d="M4.49414 7.99414L0.246094 6.99316V4.25879L9.74316 3.99023H15.9932C20.9248 3.99023 24.7822 5.47135 27.5654 8.43359C30.3486 11.3796 31.7402 15.5706 31.7402 21.0068C31.7402 24.6364 31.0648 27.8102 29.7139 30.5283C28.3792 33.2464 26.4587 35.3379 23.9521 36.8027C21.4456 38.2676 18.5485 39 15.2607 39H0.246094V35.9971L4.49414 34.9961V7.99414ZM15.5049 34.9961C18.7764 34.9961 21.3398 33.8568 23.1953 31.5781C25.0671 29.2995 26.0029 25.8571 26.0029 21.251C26.0029 16.7588 25.0996 13.4303 23.293 11.2656C21.5026 9.08464 18.988 7.99414 15.749 7.99414H9.74316V34.9961H15.5049ZM39.7725 4.25879C39.7725 3.15202 40.0898 2.28939 40.7246 1.6709C41.3594 1.05241 42.1243 0.743164 43.0195 0.743164C45.1842 0.743164 46.2666 1.91504 46.2666 4.25879C46.2666 5.33301 45.9329 6.1875 45.2656 6.82227C44.5983 7.44076 43.8496 7.75 43.0195 7.75C42.0267 7.75 41.2373 7.44076 40.6514 6.82227C40.0654 6.20378 39.7725 5.34928 39.7725 4.25879ZM49.5137 39H36.5254V36.2412L40.7734 34.9961V16.4902L36.5254 15.4893V12.7549L45.7783 12.5107V34.9961L49.5137 36.2412V39ZM57.6191 35.2891C57.6191 35.3216 58.0342 35.4111 58.8643 35.5576C59.6943 35.6878 60.679 35.7529 61.8184 35.7529C65.5781 35.7529 67.4661 34.4346 67.4824 31.7979C67.4824 30.7236 67.0186 29.918 66.0908 29.3809C65.1794 28.8275 63.7552 28.2497 61.8184 27.6475C60.0443 27.0778 58.6038 26.5326 57.4971 26.0117C56.4066 25.4746 55.4707 24.7096 54.6895 23.7168C53.9082 22.7077 53.5176 21.4056 53.5176 19.8105C53.5176 17.304 54.3639 15.3753 56.0566 14.0244C57.7656 12.6735 59.971 11.998 62.6729 11.998C63.8447 11.998 65.0573 12.112 66.3105 12.3398C67.5801 12.5514 68.6543 12.7793 69.5332 13.0234C70.4284 13.2676 70.9899 13.4303 71.2178 13.5117L71.0713 20.25H67.8242L67.0186 16.3438C66.9209 16.3112 66.7012 16.2461 66.3594 16.1484C66.0339 16.0508 65.57 15.9613 64.9678 15.8799C64.3656 15.7985 63.6982 15.7578 62.9658 15.7578C60.0036 15.7578 58.5225 16.8727 58.5225 19.1025C58.5225 20.1768 58.9945 21.0068 59.9385 21.5928C60.8988 22.1624 62.3392 22.7646 64.2598 23.3994C65.985 24.0016 67.401 24.5632 68.5078 25.084C69.6146 25.5885 70.5505 26.3291 71.3154 27.3057C72.0804 28.266 72.4629 29.4785 72.4629 30.9434C72.4629 33.7103 71.4212 35.8262 69.3379 37.291C67.2546 38.7559 64.6341 39.4883 61.4766 39.4883C60.1094 39.4883 58.8398 39.4069 57.668 39.2441C56.4961 39.0814 55.5602 38.9186 54.8604 38.7559C54.1605 38.5931 53.7292 38.471 53.5664 38.3896V30.9922H57.082L57.6191 35.2891ZM92.9707 16.4902H85.7197V32.5547C85.7197 34.5892 86.5498 35.6064 88.21 35.6064C89.2842 35.6064 90.5863 35.1914 92.1162 34.3613L93.459 36.998C91.1966 38.6582 88.861 39.4883 86.4521 39.4883C84.7594 39.4883 83.376 38.9349 82.3018 37.8281C81.2438 36.7051 80.7148 34.8496 80.7148 32.2617V16.4902H75.71V13.2432L80.7148 12.7549V6.45605L85.7197 5.45508V12.7549H92.9707V16.4902ZM105.129 16.1484C106.073 15.123 107.188 14.179 108.474 13.3164C109.776 12.4375 111.184 11.998 112.697 11.998C113.43 11.998 114.121 12.055 114.772 12.1689C115.44 12.2829 115.985 12.4049 116.408 12.5352C116.831 12.6491 117.092 12.7223 117.189 12.7549L116.945 20.0059H113.674L112.941 16.2461C111.281 16.2461 109.849 16.6449 108.645 17.4424C107.44 18.2399 106.455 19.1432 105.69 20.1523V34.9961L110.695 36.2412V39H96.4375V36.2412L100.686 34.9961V16.4902L96.4375 15.4893V12.7549L104.689 12.5107L105.129 16.1484ZM122.927 4.25879C122.927 3.15202 123.244 2.28939 123.879 1.6709C124.514 1.05241 125.279 0.743164 126.174 0.743164C128.339 0.743164 129.421 1.91504 129.421 4.25879C129.421 5.33301 129.087 6.1875 128.42 6.82227C127.753 7.44076 127.004 7.75 126.174 7.75C125.181 7.75 124.392 7.44076 123.806 6.82227C123.22 6.20378 122.927 5.34928 122.927 4.25879ZM132.668 39H119.68V36.2412L123.928 34.9961V16.4902L119.68 15.4893V12.7549L128.933 12.5107V34.9961L132.668 36.2412V39ZM152.688 16.4902H145.437V32.5547C145.437 34.5892 146.267 35.6064 147.927 35.6064C149.001 35.6064 150.303 35.1914 151.833 34.3613L153.176 36.998C150.913 38.6582 148.578 39.4883 146.169 39.4883C144.476 39.4883 143.093 38.9349 142.019 37.8281C140.961 36.7051 140.432 34.8496 140.432 32.2617V16.4902H135.427V13.2432L140.432 12.7549V6.45605L145.437 5.45508V12.7549H152.688V16.4902ZM168.898 11.998C172.593 11.998 175.474 13.1943 177.541 15.5869C179.608 17.9632 180.642 21.1859 180.642 25.2549C180.642 28.0544 180.121 30.5365 179.079 32.7012C178.054 34.8659 176.589 36.5423 174.685 37.7305C172.797 38.9023 170.616 39.4883 168.142 39.4883C164.349 39.4883 161.403 38.349 159.304 36.0703C157.204 33.7917 156.154 30.4388 156.154 26.0117C156.154 23.2122 156.691 20.7546 157.766 18.6387C158.856 16.5065 160.362 14.8708 162.282 13.7314C164.203 12.5758 166.408 11.998 168.898 11.998ZM168.654 16.002C166.18 16.002 164.349 16.8158 163.161 18.4434C161.989 20.0547 161.403 22.488 161.403 25.7432C161.403 32.2373 163.739 35.4925 168.41 35.5088C170.852 35.5088 172.626 34.6787 173.732 33.0186C174.839 31.3421 175.393 28.8356 175.393 25.499C175.393 19.1676 173.146 16.002 168.654 16.002Z" fill="#B30040"/>
<path d="M196.364 33.7021C196.364 36.7295 196.014 39.2116 195.314 41.1484C194.615 43.0853 193.426 44.542 191.75 45.5186C190.09 46.5114 187.827 47.0078 184.963 47.0078C184.296 47.0078 183.555 46.9508 182.741 46.8369C181.927 46.7393 181.407 46.6742 181.179 46.6416L181.813 41.4902H184.206C187.136 41.4902 188.609 39.8952 188.625 36.7051V9.75195L184.865 8.23828V3.99023L200.124 3.74609V8.23828L196.364 9.75195V33.7021ZM221.096 3.16016C226.109 3.16016 229.991 4.72266 232.741 7.84766C235.492 10.9564 236.867 15.3102 236.867 20.9092C236.867 24.6038 236.167 27.8672 234.768 30.6992C233.368 33.5312 231.398 35.7367 228.859 37.3154C226.32 38.8779 223.407 39.6592 220.119 39.6592C215.122 39.6592 211.289 38.1292 208.62 35.0693C205.951 31.9932 204.616 27.5173 204.616 21.6416C204.616 17.8493 205.275 14.5615 206.594 11.7783C207.928 8.99512 209.841 6.86296 212.331 5.38184C214.821 3.90072 217.743 3.16016 221.096 3.16016ZM220.852 9.41016C218.247 9.41016 216.302 10.3379 215.017 12.1934C213.747 14.0326 213.112 17.1006 213.112 21.3975C213.112 25.5316 213.69 28.5671 214.846 30.5039C216.018 32.4408 217.857 33.4092 220.363 33.4092C222.967 33.4092 224.945 32.4489 226.296 30.5283C227.663 28.6077 228.347 25.4827 228.347 21.1533C228.347 17.0843 227.728 14.1139 226.491 12.2422C225.271 10.3542 223.391 9.41016 220.852 9.41016ZM258.107 3.74609C261.477 3.74609 264.146 4.47038 266.115 5.91895C268.101 7.36751 269.094 9.52409 269.094 12.3887C269.094 16.6204 267.1 19.3711 263.112 20.6406C265.44 21.3079 267.206 22.3252 268.41 23.6924C269.631 25.0596 270.241 26.7116 270.241 28.6484C270.241 35.5495 265.912 39 257.253 39H241.359V34.752L245.095 33.2383V9.75195L241.359 8.23828V3.99023L252.858 3.74609H258.107ZM255.764 18.1504C257.587 18.1504 258.97 17.7598 259.914 16.9785C260.874 16.1973 261.354 15.0417 261.354 13.5117C261.354 12.2747 260.964 11.3389 260.183 10.7041C259.401 10.0693 258.376 9.75195 257.106 9.75195H252.858V18.1504H255.764ZM257.009 32.9941C258.734 32.9941 260.052 32.6198 260.964 31.8711C261.892 31.1224 262.355 30.0482 262.355 28.6484C262.355 26.8418 261.818 25.5153 260.744 24.6689C259.686 23.8226 258.026 23.3994 255.764 23.3994H252.858V32.9941H257.009ZM281.472 32.3594C281.569 32.4245 281.83 32.5384 282.253 32.7012C282.692 32.8639 283.27 33.0267 283.986 33.1895C284.702 33.3359 285.492 33.4092 286.354 33.4092C288.047 33.4092 289.479 33.0511 290.651 32.335C291.823 31.6188 292.409 30.626 292.409 29.3564C292.409 28.5915 292.149 27.9486 291.628 27.4277C291.123 26.9069 290.472 26.4756 289.675 26.1338C288.894 25.7757 287.754 25.3281 286.257 24.791C284.06 24.026 282.245 23.2692 280.812 22.5205C279.38 21.7718 278.135 20.6895 277.077 19.2734C276.035 17.8574 275.515 16.0182 275.515 13.7559C275.515 11.526 276.06 9.61361 277.15 8.01855C278.257 6.40723 279.771 5.19466 281.691 4.38086C283.612 3.56706 285.785 3.16016 288.21 3.16016C289.87 3.16016 291.514 3.30664 293.142 3.59961C294.785 3.89258 296.136 4.20182 297.194 4.52734C298.269 4.83659 298.944 5.04818 299.221 5.16211L298.952 14.2441H294.362L293.117 9.99609C292.987 9.96354 292.702 9.8903 292.263 9.77637C291.823 9.66243 291.278 9.5485 290.627 9.43457C289.976 9.30436 289.341 9.23926 288.723 9.23926C287.03 9.23926 285.72 9.57292 284.792 10.2402C283.864 10.9076 283.4 11.762 283.4 12.8037C283.4 13.8779 283.897 14.7243 284.89 15.3428C285.899 15.945 287.486 16.6286 289.65 17.3936C291.848 18.1585 293.654 18.9072 295.07 19.6396C296.503 20.3721 297.723 21.4219 298.732 22.7891C299.758 24.1562 300.271 25.9059 300.271 28.0381C300.271 30.4795 299.685 32.5791 298.513 34.3369C297.341 36.0785 295.738 37.4049 293.703 38.3164C291.669 39.2116 289.357 39.6592 286.77 39.6592C285.109 39.6592 283.449 39.5127 281.789 39.2197C280.145 38.943 278.778 38.6582 277.688 38.3652C276.597 38.056 275.905 37.8525 275.612 37.7549V28.1602H280.715L281.472 32.3594Z" fill="white"/>
</svg>
