<svg width="268" height="48" viewBox="0 0 268 48" fill="none" xmlns="http://www.w3.org/2000/svg">
<path d="M11.1084 9.75195H6.34766L5.10254 14.4883H0.488281V3.74609H29.4922V14.4883H24.8535L23.6084 9.75195H18.8477V33.2383L23.6084 34.752V39H6.34766V34.752L11.1084 33.2383V9.75195ZM39.5264 27.1592C39.6566 29.1611 40.2588 30.7236 41.333 31.8467C42.4235 32.9535 43.8395 33.5068 45.5811 33.5068C46.818 33.5068 48.055 33.3359 49.292 32.9941C50.5452 32.6361 51.5788 32.278 52.3926 31.9199C53.2227 31.5456 53.7516 31.2852 53.9795 31.1387L56.1279 35.2891C56.1279 35.3542 55.542 35.7692 54.3701 36.5342C53.2145 37.2829 51.7904 37.9665 50.0977 38.585C48.4212 39.1872 46.6309 39.4883 44.7266 39.4883C40.4948 39.4883 37.2721 38.3164 35.0586 35.9727C32.8451 33.6289 31.7383 30.3086 31.7383 26.0117C31.7383 23.1146 32.2673 20.5755 33.3252 18.3945C34.3994 16.1973 35.9375 14.5046 37.9395 13.3164C39.9414 12.112 42.3177 11.5098 45.0684 11.5098C48.7305 11.5098 51.5381 12.5596 53.4912 14.6592C55.4443 16.7588 56.4209 19.6234 56.4209 23.2529C56.4209 24.0505 56.3802 24.8236 56.2988 25.5723C56.2174 26.321 56.1605 26.793 56.1279 26.9883L39.5264 27.1592ZM44.5801 17.4912C43.2129 17.4912 42.098 17.9551 41.2354 18.8828C40.3727 19.7943 39.8356 20.9987 39.624 22.4961H48.6816C48.6816 20.9987 48.348 19.7943 47.6807 18.8828C47.0133 17.9551 45.9798 17.4912 44.5801 17.4912ZM84.1797 35.2402C83.0566 36.2493 81.5837 37.2096 79.7607 38.1211C77.9541 39.0326 75.8464 39.4883 73.4375 39.4883C69.3359 39.4883 66.1458 38.292 63.8672 35.8994C61.5885 33.5068 60.4492 30.1702 60.4492 25.8896C60.4492 21.43 61.6536 17.9225 64.0625 15.3672C66.4876 12.7956 69.8649 11.5098 74.1943 11.5098C75.4639 11.5098 76.7415 11.64 78.0273 11.9004C79.3294 12.1608 80.4118 12.4294 81.2744 12.7061C82.1533 12.9665 82.7067 13.1455 82.9346 13.2432L82.6904 21.4463H78.1982L77.4902 17.9062C77.3275 17.8737 76.9206 17.8005 76.2695 17.6865C75.6185 17.5563 74.8779 17.4912 74.0479 17.4912C72.2087 17.4912 70.7682 18.1178 69.7266 19.3711C68.7012 20.6243 68.1885 22.4635 68.1885 24.8887C68.1885 27.6556 68.7093 29.7878 69.751 31.2852C70.8089 32.7663 72.3714 33.5068 74.4385 33.5068C75.7406 33.5068 76.8799 33.3115 77.8564 32.9209C78.8493 32.514 79.6794 32.099 80.3467 31.6758C81.014 31.2526 81.4616 30.9759 81.6895 30.8457L84.1797 35.2402ZM97.4609 14.9033C98.4863 14.0407 99.7314 13.2594 101.196 12.5596C102.677 11.8597 104.232 11.5098 105.859 11.5098C108.398 11.5098 110.343 12.2992 111.694 13.8779C113.045 15.4567 113.721 17.6621 113.721 20.4941V33.751L117.212 34.9961V39H103.613V34.9961L106.201 33.7998V21.6904C106.201 19.0212 105.103 17.6947 102.905 17.7109C102.075 17.7109 101.261 17.9144 100.464 18.3213C99.6663 18.7119 98.999 19.1188 98.4619 19.542C97.9248 19.9489 97.5911 20.2174 97.4609 20.3477V33.751L100.122 34.9961V39H85.9619V34.9961L89.9658 33.751V5.65039L85.9619 4.64941V0.645508L97.4609 0.254883V14.9033Z" fill="white"/>
<path d="M143.921 33.7021C143.921 36.7295 143.571 39.2116 142.871 41.1484C142.171 43.0853 140.983 44.542 139.307 45.5186C137.646 46.5114 135.384 47.0078 132.52 47.0078C131.852 47.0078 131.112 46.9508 130.298 46.8369C129.484 46.7393 128.963 46.6742 128.735 46.6416L129.37 41.4902H131.763C134.692 41.4902 136.165 39.8952 136.182 36.7051V9.75195L132.422 8.23828V3.99023L147.681 3.74609V8.23828L143.921 9.75195V33.7021ZM163.11 33.7021C163.11 36.7295 162.76 39.2116 162.061 41.1484C161.361 43.0853 160.173 44.542 158.496 45.5186C156.836 46.5114 154.574 47.0078 151.709 47.0078C151.042 47.0078 150.301 46.9508 149.487 46.8369C148.674 46.7393 148.153 46.6742 147.925 46.6416L148.56 41.4902H150.952C153.882 41.4902 155.355 39.8952 155.371 36.7051V9.75195L151.611 8.23828V3.99023L166.87 3.74609V8.23828L163.11 9.75195V33.7021ZM187.842 3.16016C192.855 3.16016 196.737 4.72266 199.487 7.84766C202.238 10.9564 203.613 15.3102 203.613 20.9092C203.613 24.6038 202.913 27.8672 201.514 30.6992C200.114 33.5312 198.145 35.7367 195.605 37.3154C193.066 38.8779 190.153 39.6592 186.865 39.6592C181.868 39.6592 178.035 38.1292 175.366 35.0693C172.697 31.9932 171.362 27.5173 171.362 21.6416C171.362 17.8493 172.021 14.5615 173.34 11.7783C174.674 8.99512 176.587 6.86296 179.077 5.38184C181.567 3.90072 184.489 3.16016 187.842 3.16016ZM187.598 9.41016C184.993 9.41016 183.049 10.3379 181.763 12.1934C180.493 14.0326 179.858 17.1006 179.858 21.3975C179.858 25.5316 180.436 28.5671 181.592 30.5039C182.764 32.4408 184.603 33.4092 187.109 33.4092C189.714 33.4092 191.691 32.4489 193.042 30.5283C194.409 28.6077 195.093 25.4827 195.093 21.1533C195.093 17.0843 194.474 14.1139 193.237 12.2422C192.017 10.3542 190.137 9.41016 187.598 9.41016ZM224.854 3.74609C228.223 3.74609 230.892 4.47038 232.861 5.91895C234.847 7.36751 235.84 9.52409 235.84 12.3887C235.84 16.6204 233.846 19.3711 229.858 20.6406C232.186 21.3079 233.952 22.3252 235.156 23.6924C236.377 25.0596 236.987 26.7116 236.987 28.6484C236.987 35.5495 232.658 39 223.999 39H208.105V34.752L211.841 33.2383V9.75195L208.105 8.23828V3.99023L219.604 3.74609H224.854ZM222.51 18.1504C224.333 18.1504 225.716 17.7598 226.66 16.9785C227.62 16.1973 228.101 15.0417 228.101 13.5117C228.101 12.2747 227.71 11.3389 226.929 10.7041C226.147 10.0693 225.122 9.75195 223.853 9.75195H219.604V18.1504H222.51ZM223.755 32.9941C225.48 32.9941 226.799 32.6198 227.71 31.8711C228.638 31.1224 229.102 30.0482 229.102 28.6484C229.102 26.8418 228.564 25.5153 227.49 24.6689C226.432 23.8226 224.772 23.3994 222.51 23.3994H219.604V32.9941H223.755ZM248.218 32.3594C248.315 32.4245 248.576 32.5384 248.999 32.7012C249.438 32.8639 250.016 33.0267 250.732 33.1895C251.449 33.3359 252.238 33.4092 253.101 33.4092C254.793 33.4092 256.226 33.0511 257.397 32.335C258.569 31.6188 259.155 30.626 259.155 29.3564C259.155 28.5915 258.895 27.9486 258.374 27.4277C257.869 26.9069 257.218 26.4756 256.421 26.1338C255.64 25.7757 254.5 25.3281 253.003 24.791C250.806 24.026 248.991 23.2692 247.559 22.5205C246.126 21.7718 244.881 20.6895 243.823 19.2734C242.782 17.8574 242.261 16.0182 242.261 13.7559C242.261 11.526 242.806 9.61361 243.896 8.01855C245.003 6.40723 246.517 5.19466 248.438 4.38086C250.358 3.56706 252.531 3.16016 254.956 3.16016C256.616 3.16016 258.26 3.30664 259.888 3.59961C261.532 3.89258 262.882 4.20182 263.94 4.52734C265.015 4.83659 265.69 5.04818 265.967 5.16211L265.698 14.2441H261.108L259.863 9.99609C259.733 9.96354 259.448 9.8903 259.009 9.77637C258.569 9.66243 258.024 9.5485 257.373 9.43457C256.722 9.30436 256.087 9.23926 255.469 9.23926C253.776 9.23926 252.466 9.57292 251.538 10.2402C250.61 10.9076 250.146 11.762 250.146 12.8037C250.146 13.8779 250.643 14.7243 251.636 15.3428C252.645 15.945 254.232 16.6286 256.396 17.3936C258.594 18.1585 260.4 18.9072 261.816 19.6396C263.249 20.3721 264.469 21.4219 265.479 22.7891C266.504 24.1562 267.017 25.9059 267.017 28.0381C267.017 30.4795 266.431 32.5791 265.259 34.3369C264.087 36.0785 262.484 37.4049 260.449 38.3164C258.415 39.2116 256.104 39.6592 253.516 39.6592C251.855 39.6592 250.195 39.5127 248.535 39.2197C246.891 38.943 245.524 38.6582 244.434 38.3652C243.343 38.056 242.651 37.8525 242.358 37.7549V28.1602H247.461L248.218 32.3594Z" fill="#01D508"/>
</svg>
